<svg width="100" height="100" viewBox="0 0 100 100" fill="none" xmlns="http://www.w3.org/2000/svg">
<rect width="100" height="100" rx="10" fill="#FFFEFC"/>
<path d="M15.7813 47V49.5H8.375V47H15.7813ZM10.0703 59V46.1328C10.0703 45.263 10.2396 44.5417 10.5781 43.9687C10.9219 43.3958 11.3906 42.9661 11.9844 42.6797C12.5781 42.3932 13.2526 42.25 14.0078 42.25C14.5182 42.25 14.9844 42.2891 15.4063 42.3672C15.8333 42.4453 16.151 42.5156 16.3594 42.5781L15.7656 45.0781C15.6354 45.0365 15.474 44.9974 15.2812 44.9609C15.0937 44.9245 14.901 44.9062 14.7031 44.9062C14.2135 44.9062 13.8724 45.0208 13.6797 45.25C13.487 45.474 13.3906 45.7891 13.3906 46.1953V59H10.0703ZM21.1426 43V59H17.8145V43H21.1426ZM29.2305 59.2344C28.0169 59.2344 26.9674 58.9766 26.082 58.4609C25.2018 57.9401 24.5221 57.2161 24.043 56.2891C23.5638 55.3568 23.3242 54.276 23.3242 53.0469C23.3242 51.8073 23.5638 50.724 24.043 49.7969C24.5221 48.8646 25.2018 48.1406 26.082 47.625C26.9674 47.1042 28.0169 46.8438 29.2305 46.8438C30.444 46.8438 31.4909 47.1042 32.3711 47.625C33.2565 48.1406 33.9388 48.8646 34.418 49.7969C34.8971 50.724 35.1367 51.8073 35.1367 53.0469C35.1367 54.276 34.8971 55.3568 34.418 56.2891C33.9388 57.2161 33.2565 57.9401 32.3711 58.4609C31.4909 58.9766 30.444 59.2344 29.2305 59.2344ZM29.2461 56.6562C29.7982 56.6562 30.2591 56.5 30.6289 56.1875C30.9987 55.8698 31.2773 55.4375 31.4648 54.8906C31.6576 54.3437 31.7539 53.7214 31.7539 53.0234C31.7539 52.3255 31.6576 51.7031 31.4648 51.1562C31.2773 50.6094 30.9987 50.1771 30.6289 49.8594C30.2591 49.5417 29.7982 49.3828 29.2461 49.3828C28.6888 49.3828 28.2201 49.5417 27.8398 49.8594C27.4648 50.1771 27.181 50.6094 26.9883 51.1562C26.8008 51.7031 26.707 52.3255 26.707 53.0234C26.707 53.7214 26.8008 54.3437 26.9883 54.8906C27.181 55.4375 27.4648 55.8698 27.8398 56.1875C28.2201 56.5 28.6888 56.6562 29.2461 56.6562ZM39.3672 59L36.1016 47H39.4688L41.3281 55.0625H41.4375L43.375 47H46.6797L48.6484 55.0156H48.75L50.5781 47H53.9375L50.6797 59H47.1563L45.0938 51.4531H44.9453L42.8828 59H39.3672Z" fill="black"/>
<path d="M57.6582 59.2031C57.1426 59.2031 56.6999 59.0208 56.3301 58.6562C55.9655 58.2865 55.7832 57.8437 55.7832 57.3281C55.7832 56.8177 55.9655 56.3802 56.3301 56.0156C56.6999 55.651 57.1426 55.4687 57.6582 55.4687C58.1582 55.4687 58.5957 55.651 58.9707 56.0156C59.3457 56.3802 59.5332 56.8177 59.5332 57.3281C59.5332 57.6719 59.4447 57.987 59.2676 58.2734C59.0957 58.5547 58.8691 58.7812 58.5879 58.9531C58.3066 59.1198 57.9967 59.2031 57.6582 59.2031ZM73.4531 47L69.2578 59H65.5078L61.3125 47H64.8281L67.3203 55.5859H67.4453L69.9297 47H73.4531ZM75.1563 59V47H78.4844V59H75.1563ZM76.8281 45.4531C76.3333 45.4531 75.9089 45.2891 75.5547 44.9609C75.2057 44.6276 75.0312 44.2292 75.0312 43.7656C75.0312 43.3073 75.2057 42.9141 75.5547 42.5859C75.9089 42.2526 76.3333 42.0859 76.8281 42.0859C77.3229 42.0859 77.7448 42.2526 78.0938 42.5859C78.4479 42.9141 78.625 43.3073 78.625 43.7656C78.625 44.2292 78.4479 44.6276 78.0938 44.9609C77.7448 45.2891 77.3229 45.4531 76.8281 45.4531ZM85.5723 59.1953C84.6608 59.1953 83.8353 58.9609 83.0957 58.4922C82.3613 58.0182 81.778 57.3229 81.3457 56.4062C80.9186 55.4844 80.7051 54.3542 80.7051 53.0156C80.7051 51.6406 80.9264 50.4974 81.3691 49.5859C81.8118 48.6693 82.4004 47.9844 83.1348 47.5313C83.8743 47.0729 84.6842 46.8438 85.5645 46.8438C86.2363 46.8438 86.7962 46.9583 87.2441 47.1875C87.6973 47.4115 88.0618 47.6927 88.3379 48.0312C88.6191 48.3646 88.8327 48.6927 88.9785 49.0156H89.0801V43H92.4004V59H89.1191V57.0781H88.9785C88.8223 57.4115 88.6009 57.7422 88.3145 58.0703C88.0332 58.3932 87.666 58.6615 87.2129 58.875C86.765 59.0885 86.2181 59.1953 85.5723 59.1953ZM86.627 56.5469C87.1634 56.5469 87.6165 56.401 87.9863 56.1094C88.3613 55.8125 88.6478 55.3984 88.8457 54.8672C89.0488 54.3359 89.1504 53.7135 89.1504 53C89.1504 52.2865 89.0514 51.6667 88.8535 51.1406C88.6556 50.6146 88.3691 50.2083 87.9941 49.9219C87.6191 49.6354 87.1634 49.4922 86.627 49.4922C86.0801 49.4922 85.6191 49.6406 85.2441 49.9375C84.8691 50.2344 84.5853 50.6458 84.3926 51.1719C84.1999 51.6979 84.1035 52.3073 84.1035 53C84.1035 53.6979 84.1999 54.3151 84.3926 54.8516C84.5905 55.3828 84.8743 55.7995 85.2441 56.1016C85.6191 56.3984 86.0801 56.5469 86.627 56.5469Z" fill="#FF6259"/>
</svg>
